<svg xmlns="http://www.w3.org/2000/svg" xmlns:xlink="http://www.w3.org/1999/xlink" viewBox="0,0,256,256" width="64px" height="64px" fill-rule="nonzero"><defs><linearGradient x1="30.982" y1="21.203" x2="30.982" y2="43.514" gradientUnits="userSpaceOnUse" id="color-1"><stop offset="0" stop-color="#ffffff"></stop><stop offset="1" stop-color="#ffffff"></stop></linearGradient><linearGradient x1="44.5" y1="16" x2="44.5" y2="49" gradientUnits="userSpaceOnUse" id="color-2"><stop offset="0" stop-color="#ffffff"></stop><stop offset="1" stop-color="#f9f9f9"></stop></linearGradient><linearGradient x1="17.54" y1="15" x2="17.54" y2="50" gradientUnits="userSpaceOnUse" id="color-3"><stop offset="0" stop-color="#ffffff"></stop><stop offset="1" stop-color="#f9f9f9"></stop></linearGradient></defs><g fill="none" fill-rule="nonzero" stroke="none" stroke-width="1" stroke-linecap="butt" stroke-linejoin="miter" stroke-miterlimit="10" stroke-dasharray="" stroke-dashoffset="0" font-family="none" font-weight="none" font-size="none" text-anchor="none" style="mix-blend-mode: normal"><g transform="scale(4,4)"><path d="M45.758,32.346l11.206,14.654h-0.85c-1.051,0 -2.041,-0.49 -2.68,-1.324l-8.934,-11.684l-8.935,11.684c-0.638,0.834 -1.628,1.324 -2.679,1.324h-0.85l11.206,-14.654l-10.971,-14.346h0.85c1.051,0 2.041,0.49 2.68,1.324l8.7,11.377l8.7,-11.377c0.637,-0.834 1.628,-1.324 2.678,-1.324h0.85zM28.527,40h0.638v0c-2.348,6.085 -9.292,9.631 -15.896,7.256c-5.054,-1.819 -8.269,-6.812 -8.269,-12.183v-5.573c0,-7.29 6.273,-13.143 13.705,-12.443c6.477,0.61 11.295,6.304 11.295,12.809v4.134h-11v0h-12v1.109c0,4.501 2.671,8.705 6.9,10.248c4.807,1.754 9.835,-0.235 12.389,-4.116c0.5,-0.76 1.327,-1.241 2.238,-1.241zM7,32h21v-2.5c0,-5.79 -4.71,-10.5 -10.5,-10.5c-5.79,0 -10.5,4.71 -10.5,10.5z" fill="url(#color-1)"></path><path d="M56.729,18l-10.971,14.347l11.206,14.653h-0.85c-1.051,0 -2.041,-0.49 -2.68,-1.324l-8.934,-11.684l-8.935,11.684c-0.638,0.834 -1.628,1.324 -2.679,1.324h-0.85l11.206,-14.653l-10.971,-14.347h0.85c1.051,0 2.041,0.49 2.68,1.324l8.7,11.377l8.7,-11.377c0.637,-0.834 1.628,-1.324 2.678,-1.324h0.85M60.776,16h-4.047h-0.85c-1.663,0 -3.258,0.788 -4.268,2.109l-7.111,9.299l-7.111,-9.299c-1.01,-1.321 -2.606,-2.109 -4.268,-2.109h-0.85h-4.047l2.458,3.215l10.042,13.132l-10.277,13.438l-2.458,3.215h4.047h0.85c1.663,0 3.258,-0.789 4.268,-2.109l7.346,-9.606l7.346,9.606c1.01,1.32 2.605,2.109 4.268,2.109h0.85h4.047l-2.458,-3.215l-10.277,-13.439l10.042,-13.132l2.458,-3.214z" fill="url(#color-2)"></path><path d="M17.5,17c0.397,0 0.8,0.019 1.205,0.057c6.477,0.61 11.295,6.304 11.295,12.809v4.134h-11v0h-12v1.109c0,4.501 2.671,8.705 6.9,10.248c1.2,0.439 2.414,0.643 3.6,0.643c3.563,0 6.872,-1.847 8.789,-4.758c0.5,-0.761 1.327,-1.242 2.238,-1.242h0.638v0c-1.847,4.785 -6.535,8 -11.665,8c-1.394,0 -2.82,-0.237 -4.231,-0.745c-5.054,-1.818 -8.269,-6.811 -8.269,-12.182v-5.573c0,-6.893 5.607,-12.5 12.5,-12.5M7,32h21v-2.5c0,-5.79 -4.71,-10.5 -10.5,-10.5c-5.79,0 -10.5,4.71 -10.5,10.5v2.5M17.5,15v0c-3.868,0 -7.508,1.509 -10.249,4.251c-2.741,2.741 -4.251,6.381 -4.251,10.249v5.573c0,6.348 3.855,12 9.592,14.065c1.592,0.572 3.243,0.862 4.908,0.862c5.951,0 11.389,-3.729 13.531,-9.28l1.05,-2.72h-2.915h-0.638c-1.565,0 -3.026,0.801 -3.91,2.142c-1.566,2.38 -4.294,3.858 -7.118,3.858c-0.986,0 -1.967,-0.175 -2.915,-0.521c-3.076,-1.123 -5.223,-4.063 -5.543,-7.479h9.958h11h2v-2v-4.134c0,-7.607 -5.758,-14.109 -13.108,-14.8c-0.462,-0.044 -0.93,-0.066 -1.392,-0.066zM9,30v-0.5c0,-4.687 3.813,-8.5 8.5,-8.5c4.687,0 8.5,3.813 8.5,8.5v0.5h-17z" fill="url(#color-3)"></path></g></g></svg>